<svg id="visual" viewBox="0 0 675 900" width="675" height="900" xmlns="http://www.w3.org/2000/svg" xmlns:xlink="http://www.w3.org/1999/xlink" version="1.1"><g stroke-width="1" stroke-linejoin="bevel"><path d="M320 390.7L218 459.3L396 495.3Z" fill="#68c2b5" stroke="#68c2b5"></path><path d="M218 459.3L298 611.9L396 495.3Z" fill="#91cbc3" stroke="#91cbc3"></path><path d="M396 495.3L448 345.7L320 390.7Z" fill="#a4d0ca" stroke="#a4d0ca"></path><path d="M87 334.7L94 495.3L218 459.3Z" fill="#91cbc3" stroke="#91cbc3"></path><path d="M218 459.3L94 495.3L298 611.9Z" fill="#7dc6bd" stroke="#7dc6bd"></path><path d="M204 220.1L150 311.1L320 390.7Z" fill="#61c0b3" stroke="#61c0b3"></path><path d="M320 390.7L150 311.1L218 459.3Z" fill="#91cbc3" stroke="#91cbc3"></path><path d="M448 345.7L386 262.1L320 390.7Z" fill="#68c2b5" stroke="#68c2b5"></path><path d="M287 747.4L432 693.9L298 611.9Z" fill="#7dc6bd" stroke="#7dc6bd"></path><path d="M298 611.9L432 693.9L396 495.3Z" fill="#77c5ba" stroke="#77c5ba"></path><path d="M396 495.3L557 475.3L448 345.7Z" fill="#a4d0ca" stroke="#a4d0ca"></path><path d="M432 693.9L557 475.3L396 495.3Z" fill="#91cbc3" stroke="#91cbc3"></path><path d="M448 345.7L494 311.7L386 262.1Z" fill="#8bcac1" stroke="#8bcac1"></path><path d="M557 475.3L494 311.7L448 345.7Z" fill="#a4d0ca" stroke="#a4d0ca"></path><path d="M150 311.1L87 334.7L218 459.3Z" fill="#68c2b5" stroke="#68c2b5"></path><path d="M141 706.9L287 747.4L298 611.9Z" fill="#9ecec8" stroke="#9ecec8"></path><path d="M386 262.1L204 220.1L320 390.7Z" fill="#68c2b5" stroke="#68c2b5"></path><path d="M150 311.1L81 183.6L87 334.7Z" fill="#84c8bf" stroke="#84c8bf"></path><path d="M94 495.3L141 706.9L298 611.9Z" fill="#91cbc3" stroke="#91cbc3"></path><path d="M397 781.4L509 710.9L432 693.9Z" fill="#7dc6bd" stroke="#7dc6bd"></path><path d="M432 693.9L509 710.9L557 475.3Z" fill="#61c0b3" stroke="#61c0b3"></path><path d="M287 747.4L397 781.4L432 693.9Z" fill="#68c2b5" stroke="#68c2b5"></path><path d="M377 900L397 781.4L287 747.4Z" fill="#84c8bf" stroke="#84c8bf"></path><path d="M0 365.7L0 554.3L94 495.3Z" fill="#98cdc6" stroke="#98cdc6"></path><path d="M94 495.3L0 554.3L141 706.9Z" fill="#77c5ba" stroke="#77c5ba"></path><path d="M498 140.6L395 166.6L386 262.1Z" fill="#8bcac1" stroke="#8bcac1"></path><path d="M386 262.1L395 166.6L204 220.1Z" fill="#61c0b3" stroke="#61c0b3"></path><path d="M0 242.1L0 365.7L87 334.7Z" fill="#a4d0ca" stroke="#a4d0ca"></path><path d="M87 334.7L0 365.7L94 495.3Z" fill="#91cbc3" stroke="#91cbc3"></path><path d="M0 767.4L170 797.4L141 706.9Z" fill="#68c2b5" stroke="#68c2b5"></path><path d="M141 706.9L170 797.4L287 747.4Z" fill="#77c5ba" stroke="#77c5ba"></path><path d="M0 554.3L0 667.9L141 706.9Z" fill="#98cdc6" stroke="#98cdc6"></path><path d="M675 353.7L611 278.1L494 311.7Z" fill="#a4d0ca" stroke="#a4d0ca"></path><path d="M494 311.7L498 140.6L386 262.1Z" fill="#7dc6bd" stroke="#7dc6bd"></path><path d="M675 353.7L494 311.7L557 475.3Z" fill="#98cdc6" stroke="#98cdc6"></path><path d="M204 220.1L81 183.6L150 311.1Z" fill="#91cbc3" stroke="#91cbc3"></path><path d="M239 0L81 183.6L204 220.1Z" fill="#7dc6bd" stroke="#7dc6bd"></path><path d="M397 781.4L537 776.4L509 710.9Z" fill="#84c8bf" stroke="#84c8bf"></path><path d="M675 615.9L675 555.3L557 475.3Z" fill="#77c5ba" stroke="#77c5ba"></path><path d="M508 900L537 776.4L397 781.4Z" fill="#9ecec8" stroke="#9ecec8"></path><path d="M675 615.9L557 475.3L509 710.9Z" fill="#8bcac1" stroke="#8bcac1"></path><path d="M451 0L318 100.6L395 166.6Z" fill="#7dc6bd" stroke="#7dc6bd"></path><path d="M395 166.6L318 100.6L204 220.1Z" fill="#84c8bf" stroke="#84c8bf"></path><path d="M81 183.6L0 242.1L87 334.7Z" fill="#98cdc6" stroke="#98cdc6"></path><path d="M675 555.3L675 353.7L557 475.3Z" fill="#9ecec8" stroke="#9ecec8"></path><path d="M498 0L498 140.6L675 57.6Z" fill="#68c2b5" stroke="#68c2b5"></path><path d="M611 278.1L498 140.6L494 311.7Z" fill="#7dc6bd" stroke="#7dc6bd"></path><path d="M675 770.4L675 615.9L509 710.9Z" fill="#a4d0ca" stroke="#a4d0ca"></path><path d="M675 353.7L675 310.1L611 278.1Z" fill="#68c2b5" stroke="#68c2b5"></path><path d="M0 667.9L0 767.4L141 706.9Z" fill="#a4d0ca" stroke="#a4d0ca"></path><path d="M154 900L250 900L170 797.4Z" fill="#68c2b5" stroke="#68c2b5"></path><path d="M170 797.4L250 900L287 747.4Z" fill="#84c8bf" stroke="#84c8bf"></path><path d="M250 900L377 900L287 747.4Z" fill="#61c0b3" stroke="#61c0b3"></path><path d="M0 900L154 900L170 797.4Z" fill="#84c8bf" stroke="#84c8bf"></path><path d="M377 900L508 900L397 781.4Z" fill="#61c0b3" stroke="#61c0b3"></path><path d="M537 776.4L675 770.4L509 710.9Z" fill="#9ecec8" stroke="#9ecec8"></path><path d="M675 900L675 770.4L537 776.4Z" fill="#8bcac1" stroke="#8bcac1"></path><path d="M451 0L239 0L318 100.6Z" fill="#70c3b8" stroke="#70c3b8"></path><path d="M318 100.6L239 0L204 220.1Z" fill="#7dc6bd" stroke="#7dc6bd"></path><path d="M81 183.6L0 78.6L0 242.1Z" fill="#98cdc6" stroke="#98cdc6"></path><path d="M498 0L451 0L498 140.6Z" fill="#61c0b3" stroke="#61c0b3"></path><path d="M498 140.6L451 0L395 166.6Z" fill="#8bcac1" stroke="#8bcac1"></path><path d="M76 0L0 78.6L81 183.6Z" fill="#61c0b3" stroke="#61c0b3"></path><path d="M675 57.6L498 140.6L611 278.1Z" fill="#70c3b8" stroke="#70c3b8"></path><path d="M0 767.4L0 900L170 797.4Z" fill="#7dc6bd" stroke="#7dc6bd"></path><path d="M239 0L76 0L81 183.6Z" fill="#9ecec8" stroke="#9ecec8"></path><path d="M508 900L675 900L537 776.4Z" fill="#a4d0ca" stroke="#a4d0ca"></path><path d="M675 310.1L675 57.6L611 278.1Z" fill="#8bcac1" stroke="#8bcac1"></path><path d="M76 0L0 0L0 78.6Z" fill="#91cbc3" stroke="#91cbc3"></path><path d="M675 57.6L675 0L498 0Z" fill="#70c3b8" stroke="#70c3b8"></path></g></svg>